<svg xmlns="http://www.w3.org/2000/svg" viewBox="0 0 1024 1024">
  <defs>
    <clipPath id="squircle">
      <path d="M512 0 C 224 0 0 224 0 512 C 0 800 224 1024 512 1024 C 800 1024 1024 800 1024 512 C 1024 224 800 0 512 0 Z"></path>
    </clipPath>
    <linearGradient id="bg" x1="0" y1="0" x2="0" y2="1">
      <stop offset="0" stop-color="#16191D"></stop>
      <stop offset="1" stop-color="#0B0F12"></stop>
    </linearGradient>
  </defs>
  <g clip-path="url(#squircle)">
    <rect width="1024" height="1024" fill="url(#bg)"></rect>
    <g transform="translate(192,192) scale(10.0)">
      
  <path d="M12 12 H52 a2.5 2.5 0 0 1 2.5 2.5 V22 H9.5 V14.5 A2.5 2.5 0 0 1 12 12 Z" stroke="#00F0B5" stroke-width="3" stroke-linejoin="round" fill="none"></path>
  <path d="M9.5 22 H54.5 V42 L32 54 L9.5 42 Z" stroke="#00F0B5" stroke-width="3" stroke-linejoin="round" stroke-linecap="round" fill="none"></path>
  <path d="M25 30 L31 35 L25 40" stroke="#F5F7FA" stroke-width="3" stroke-linecap="round" stroke-linejoin="round" fill="none"></path>
  <path d="M34 40 H41" stroke="#F5F7FA" stroke-width="3" stroke-linecap="round" fill="none"></path>

    </g>
  </g>
</svg>